<svg id="Layer_1" data-name="Layer 1" xmlns="http://www.w3.org/2000/svg" viewBox="0 0 1780.04 227.78"><defs><style>.cls-1{fill:#e7e7e1;}</style></defs><title>Artopolis Logo III</title><path class="cls-1" d="M1828,201.61a60.31,60.31,0,0,1,.62,13.24,49.76,49.76,0,0,1-7.85,24,53.49,53.49,0,0,1-9.29,11.07,55.13,55.13,0,0,1-10.08,7.19,64.09,64.09,0,0,1-8.24,3.77,66.73,66.73,0,0,1-14.79,3.77,62.85,62.85,0,0,1-17.14,0,50.25,50.25,0,0,1-11.94-3,49.67,49.67,0,0,1-11.26-6.25,52.5,52.5,0,0,1-5.7-4.89,54,54,0,0,1-4.76-5.32,51.89,51.89,0,0,1-5.69-9.22,60.76,60.76,0,0,1-3.53-8.54,56.6,56.6,0,0,1-2.59-19.18h36.6a26.5,26.5,0,0,0,1.42,9.32,17.13,17.13,0,0,0,3.43,6.41,16.78,16.78,0,0,0,6.11,4.18,22.1,22.1,0,0,0,9.55,1.94,21.59,21.59,0,0,0,9.62-2.68,18.13,18.13,0,0,0,5.59-4.55,18.87,18.87,0,0,0,3.14-6,22.54,22.54,0,0,0,.89-5.59,31.56,31.56,0,0,0-1.57-12.09c-1.08-3.14-2.42-5.19-5.07-9.17a104.17,104.17,0,0,0-9.17-11.63c-1-1.12-4.13-4.64-10.37-10.81-5.87-5.82-6.22-5.8-13.79-13.13-7.87-7.61-10.92-10.94-12.53-12.75-3.14-3.51-5.5-6.41-6.86-8.13a103,103,0,0,1-9.25-12.9,50.07,50.07,0,0,1-6-13.49,47.24,47.24,0,0,1-1.34-7.84,58,58,0,0,1,.37-13.12,55.52,55.52,0,0,1,3.8-14.54,52,52,0,0,1,8.66-14.1,48.11,48.11,0,0,1,8.87-7.83,53.2,53.2,0,0,1,10.52-5.44,57,57,0,0,1,8.79-2.61,64.07,64.07,0,0,1,23.57-.37c3.3.5,6.18,1.21,7,1.42A52.38,52.38,0,0,1,1795,45a43.63,43.63,0,0,1,8.72,4.7,45.88,45.88,0,0,1,6.11,5.22,40.77,40.77,0,0,1,4.7,5.52,38.23,38.23,0,0,1,5,10.81,69.47,69.47,0,0,1,3,20.41h-32V90.59a12,12,0,0,0-.35-2.91,12.42,12.42,0,0,0-1.24-3.16,13.21,13.21,0,0,0-2.22-3.15,13.63,13.63,0,0,0-4.08-2.66,26.67,26.67,0,0,0-7.62-2.29,18.94,18.94,0,0,0-7.55.12,17.41,17.41,0,0,0-8.85,5.57,18,18,0,0,0-4,7.74,19.1,19.1,0,0,0,.93,10.64c.77,2.28,2,5,7.49,11.63,2.9,3.53,5.09,5.86,11,12,6.37,6.67,9.55,10,11.39,11.88,9.11,9.27,9.15,8.76,13.68,13.68a161.87,161.87,0,0,1,12.37,15.09,100.51,100.51,0,0,1,9.47,15.29A71.59,71.59,0,0,1,1828,201.61Zm-16.86,17.24a47.44,47.44,0,0,0,.82-9.62,40.29,40.29,0,0,0-1-9,44.1,44.1,0,0,0-2.66-7.61,85.47,85.47,0,0,0-8-14.57c-1.26-1.89-2.37-3.42-3.48-5-1.31-1.81-3.14-4.33-5.66-7.44-2.33-2.86-4.16-4.9-6-6.9-2.21-2.46-3.91-4.24-5.72-6.13-3.19-3.34-4.78-5-6.72-6.85-3.54-3.35-4.11-3.45-7.43-6.66-2.22-2.15-3.73-3.8-5.43-5.67-3.91-4.29-6.63-7.73-8.43-10-2.88-3.65-4.39-5.84-4.84-6.49-1.22-1.78-2.21-3.32-2.92-4.48,0,0-2-3.52-3.7-7.2a31.28,31.28,0,0,1-2.58-7.23,28.34,28.34,0,0,1-.5-3.82,36.77,36.77,0,0,1,.63-9.15,31.72,31.72,0,0,1,2.13-7.24,31.45,31.45,0,0,1,10.11-12.52,33,33,0,0,1,3.85-2.39,37.41,37.41,0,0,1,6.06-2.55A44.1,44.1,0,0,1,1772,58.26a35,35,0,0,1,10.26,1.06,33.59,33.59,0,0,1,8.14,3.31,34.94,34.94,0,0,1,5.35,3.76c2.35,2,4.38,3.8,5.65,6.79a14.17,14.17,0,0,1,1,3.87h3a21.66,21.66,0,0,0-1-3.44,22.77,22.77,0,0,0-5.52-8.22,29.92,29.92,0,0,0-8.65-5.9,40.55,40.55,0,0,0-16.82-4.13,41,41,0,0,0-14.06,2.31,38.86,38.86,0,0,0-10.86,5.13,31,31,0,0,0-8.33,8,31.46,31.46,0,0,0-3.91,7.89,37.47,37.47,0,0,0-2.15,10.75,32.38,32.38,0,0,0,.49,8.44,40.21,40.21,0,0,0,2.18,7.06c.42,1.06,1.05,2.59,2.06,4.63a91.27,91.27,0,0,0,7.94,12.74c2.48,3.38,4.47,5.74,6.46,8.1,1.74,2.07,4.48,5.3,8.27,9.16,2.32,2.36,2.34,2.21,7.61,7.22,4.71,4.48,7.07,6.72,9.76,9.54,3.94,4.11,6.74,7.45,8.49,9.54,3,3.57,5.27,6.28,8,10.25a119.72,119.72,0,0,1,7,11.25c2.65,4.88,4,7.36,5.12,11.25a41,41,0,0,1,1.54,9.45,43.86,43.86,0,0,1-1.32,12.58,35.1,35.1,0,0,1-4,10.29,34,34,0,0,1-7.78,8.82,36.78,36.78,0,0,1-13.67,6.72,38.87,38.87,0,0,1-15.28.77,36.92,36.92,0,0,1-15.42-5,30.36,30.36,0,0,1-14.82-21.59h-2.95V221c.06.39.17,1,.32,1.78.37,1.91.69,3.41.77,3.72a26.82,26.82,0,0,0,4.54,9.2,31,31,0,0,0,7.14,6.67,39.24,39.24,0,0,0,21.59,7.72,49,49,0,0,0,11.73-.35,33.5,33.5,0,0,0,15.87-6.37,33,33,0,0,0,7.43-6.72,35.39,35.39,0,0,0,2.6-3.78,41.22,41.22,0,0,0,2.78-5.43A40.77,40.77,0,0,0,1811.15,218.85Z" transform="translate(-48.71 -39.85)"/><path class="cls-1" d="M1620.07,228v37.45H1507.18V228h37.68V77.25h-37.68V39.85h112.89v37.4h-37.53V228Zm-18.37,22.16v-3.22h-36.32V61.4h36.32V58.46h-75.16V61.4h35.61V246.94h-35.61v3.22Z" transform="translate(-48.71 -39.85)"/><path class="cls-1" d="M1412.06,228v37.47H1299.91V40.72h37.42V228ZM1395,248.24v-2.87H1320V58.16h-3V248.24Z" transform="translate(-48.71 -39.85)"/><path class="cls-1" d="M1205.23,91.24V218.31a57.19,57.19,0,0,1-113.08,0V90.14a56.86,56.86,0,0,1,113.08,1.1ZM1189.5,212.56V95.36c-.38-22.15-18.85-39.86-40.45-39.47-20.91.39-38.38,17.61-39,39V212.56c.2,21.62,17.76,39.27,39,39.66C1170.81,252.62,1189.29,234.75,1189.5,212.56Z" transform="translate(-48.71 -39.85)"/><path class="cls-1" d="M1186.55,95.36v117.2c-.27,20.56-17.46,37-37.5,36.53-19.41-.45-35.51-16.64-35.75-36.53V94.68c.6-19.76,16.64-35.58,35.75-36C1169,58.18,1186.29,74.68,1186.55,95.36Zm-18.5,117.2V95.36a19.09,19.09,0,0,0-38.16,0v117.2a19.16,19.16,0,0,0,38.16,0Z" transform="translate(-48.71 -39.85)"/><path class="cls-1" d="M983.24,58.22C993.76,71,994.32,85.49,994.3,90.12l-.84,93.51a55.36,55.36,0,0,1-13.89,27.24c-15.84,16.74-36.91,17.09-41,17.09H919.55v37.49H882.33V40.65H938.6C940.92,40.42,966.82,38.24,983.24,58.22Zm-5.78,113.69v-75c-.49-2.17.64-20.71-14.24-32.1-10.59-8.11-20.86-6.56-24.83-6.56h-38.8V250.58h3.08V210.87h35.64a39.58,39.58,0,0,0,27.4-11.08A40.16,40.16,0,0,0,977.46,171.91Z" transform="translate(-48.71 -39.85)"/><path class="cls-1" d="M938.39,190.62a20.1,20.1,0,0,0,14.15-7.11,19.65,19.65,0,0,0,4.26-11.37V96.88c0-.57-.33-12.07-9.2-16.88a16.74,16.74,0,0,0-9.21-1.85H919.55V190.62Zm36.24-93.74v75.26A46.54,46.54,0,0,1,972,183.51a42.28,42.28,0,0,1-8.12,13.88c-9,9.68-22.07,10.52-25.68,10.64H902.67v-147h35.72c3.8-.4,12.15-.54,19.51,3.37C968.92,70.27,974.52,82.79,974.63,96.88Z" transform="translate(-48.71 -39.85)"/><path class="cls-1" d="M786.23,91.24V218.31a57.18,57.18,0,0,1-113.07,0V90.14a56.86,56.86,0,0,1,113.07,1.1ZM770.5,212.56V95.36c-.38-22.15-18.85-39.86-40.45-39.47-20.91.39-38.38,17.61-39,39V212.56c.2,21.62,17.76,39.27,39,39.66C751.81,252.62,770.29,234.75,770.5,212.56Z" transform="translate(-48.71 -39.85)"/><path class="cls-1" d="M767.55,95.36v117.2c-.27,20.56-17.45,37-37.5,36.53-19.41-.45-35.5-16.64-35.76-36.53V94.68c.61-19.76,16.65-35.58,35.76-36C750,58.18,767.28,74.68,767.55,95.36Zm-18.5,117.2V95.36a19.09,19.09,0,0,0-38.16,0v117.2a19.16,19.16,0,0,0,38.16,0Z" transform="translate(-48.71 -39.85)"/><path class="cls-1" d="M579,39.86v38H541V267.63H503V77.85H464.93v-38H579ZM560.69,62.33V59H485v3.32h35.89V251.47h3.26V62.33Z" transform="translate(-48.71 -39.85)"/><path class="cls-1" d="M369.78,90.43l0,82.4a53.89,53.89,0,0,1-14,36.07,56.25,56.25,0,0,1,14,39.25v17H332.07v-22a18.34,18.34,0,0,0-4.5-9.43,19.19,19.19,0,0,0-13.76-5.91l-19.37-.1v37.45h-37V39.94h56.35c3.57-.08,24.39-.25,40.58,16.23A55.37,55.37,0,0,1,369.78,90.43ZM352.31,248.15c.14-3,.46-16.23-9.38-27.39a38.15,38.15,0,0,0-18.29-11.37c4.35-1.19,15-4.76,20.92-14.39a41.24,41.24,0,0,0,4.19-9.83c.25-.84.43-1.53.55-2A52.42,52.42,0,0,0,352,170.33V105l0-7.64a54.57,54.57,0,0,0-.56-6.94,59,59,0,0,0-1.51-7c-3.45-11.59-13.26-18.94-13.26-18.94a37.53,37.53,0,0,0-22.86-7.39H274.36v191h3V210.37h36.49c2.31,0,15.88.57,26.12,11.89a37,37,0,0,1,9.31,25.89Z" transform="translate(-48.71 -39.85)"/><path class="cls-1" d="M348.63,96.52l.1,8.49-.2,68.92a46.74,46.74,0,0,1-.8,7c-.25,1.34-.55,2.59-.86,3.75-.11.39-.22.76-.33,1.13a31.6,31.6,0,0,1-10,14.44,32.7,32.7,0,0,1-22.77,6.92H277.32V60.38h36.49a35.12,35.12,0,0,1,21.48,7.19C348.67,78,348.66,94.52,348.63,96.52Zm-16.3,77V91.6a18.89,18.89,0,0,0-18.52-14.09H294.44V190.12h19.37a19.68,19.68,0,0,0,11.6-4.39A19.93,19.93,0,0,0,332.33,173.51Z" transform="translate(-48.71 -39.85)"/><path class="cls-1" d="M161.19,91.82v174.9H123.36l-.18-37.2H86.38v37.2H48.71V91.82C51.42,62.18,76.78,39.53,106,40.09,134.49,40.63,158.56,63,161.19,91.82ZM145,251V95.56a40,40,0,0,0-79.91,0V251h3V213.73h73.83V251Z" transform="translate(-48.71 -39.85)"/><path class="cls-1" d="M141.92,210.76H68.09V95.56a36.95,36.95,0,0,1,73.83,0Zm-18.56-18.89V95.56a18.5,18.5,0,0,0-37,0v96.31Z" transform="translate(-48.71 -39.85)"/></svg>